<svg width="416" height="512" viewBox="0 0 416 512" fill="none" xmlns="http://www.w3.org/2000/svg">
<path d="M80 80V64C80.0369 51.281 85.1059 39.0934 94.0997 30.0997C103.093 21.1059 115.281 16.0369 128 16H352C364.719 16.0369 376.907 21.1059 385.9 30.0997C394.894 39.0934 399.963 51.281 400 64V432L320 368" stroke="white" stroke-width="32" stroke-linejoin="round"/>
<path d="M272 96H64C51.281 96.0369 39.0934 101.106 30.0997 110.1C21.1059 119.093 16.0369 131.281 16 144V496L168 368L320 496V144C319.963 131.281 314.894 119.093 305.9 110.1C296.907 101.106 284.719 96.0369 272 96Z" stroke="white" stroke-width="32" stroke-linejoin="round"/>
</svg>
