<svg width="480" height="352" viewBox="0 0 480 352" fill="none" xmlns="http://www.w3.org/2000/svg">
<path d="M386.01 88C383.08 128.67 352.91 160 320.01 160C287.11 160 256.89 128.68 254.01 88C251.01 45.69 280.38 16 320.01 16C359.64 16 389.01 46.46 386.01 88Z" stroke="#41AB34" stroke-width="32" stroke-linecap="round" stroke-linejoin="round"/>
<path d="M320.01 224C254.84 224 192.17 256.37 176.47 319.41C174.39 327.75 179.62 336 188.19 336H451.84C460.41 336 465.61 327.75 463.56 319.41C447.86 255.36 385.19 224 320.01 224Z" stroke="#41AB34" stroke-width="32" stroke-miterlimit="10"/>
<path d="M184.01 105.94C181.67 138.42 157.29 164 131.01 164C104.73 164 80.3095 138.43 78.0096 105.94C75.6195 72.15 99.3495 48 131.01 48C162.67 48 186.4 72.77 184.01 105.94Z" stroke="#41AB34" stroke-width="32" stroke-linecap="round" stroke-linejoin="round"/>
<path d="M190.01 226C171.96 217.73 152.08 214.55 131.01 214.55C79.0098 214.55 28.9098 240.4 16.3598 290.75C14.7098 297.41 18.8898 304 25.7298 304H138.01" stroke="#41AB34" stroke-width="32" stroke-miterlimit="10" stroke-linecap="round"/>
</svg>
