<svg width="416" height="448" viewBox="0 0 416 448" fill="none" xmlns="http://www.w3.org/2000/svg">
<path d="M400 309.34V138.58C399.993 132.991 398.523 127.501 395.735 122.657C392.947 117.813 388.939 113.783 384.11 110.97L232.11 22.5097C224.787 18.2462 216.464 16 207.99 16C199.516 16 191.193 18.2462 183.87 22.5097L31.89 110.97C27.0609 113.783 23.053 117.813 20.2652 122.657C17.4773 127.501 16.0068 132.991 16 138.58V309.34C16.0033 314.932 17.4722 320.426 20.2602 325.274C23.0482 330.122 27.058 334.154 31.89 336.97L183.89 425.43C191.215 429.687 199.537 431.93 208.01 431.93C216.483 431.93 224.805 429.687 232.13 425.43L384.13 336.97C388.958 334.152 392.964 330.118 395.748 325.27C398.533 320.423 399.999 314.93 400 309.34Z" stroke="#41AB34" stroke-width="32" stroke-linecap="round" stroke-linejoin="round"/>
<path d="M21 121.96L208 231.96M208 231.96L395 121.96M208 231.96V431.96" stroke="#41AB34" stroke-width="32" stroke-linecap="round" stroke-linejoin="round"/>
</svg>
