<svg xmlns="http://www.w3.org/2000/svg" viewBox="0 0 306.88 303.32"><defs><style>.cls-1{fill:#008000;stroke:#008000;stroke-miterlimit:10;stroke-width:8px;}</style></defs><g id="Capa_2" data-name="Capa 2"><g id="Capa_1-2" data-name="Capa 1"><path class="cls-1" d="M296.07,163.75q-26.22-7.16-52.44-14.32c-17.24-4.74-21.47-8.54-38.71-13.31l.86-3.55a42.86,42.86,0,0,1,6.46.76c29.77,8,46.57,14.9,76.2,23.36,4.61,1.32,8.4,5.29,12.57,8L292,176l-2.47-1.3c0,21.46-.54,42.94.31,64.37.28,7.12,4.4,14,6.19,21.18.95,3.79.67,7.86,1,12.51H277.2c1.77-10.45-2-21.16,6.59-29.84.74-.75.8-2.33.8-3.53.05-20.81,0-41.61,0-63.72-12.15,3.33-23.28,6-34.06,9.66-2,.69-3.71,5.24-3.74,8-.27,24.91-.32,49.84,0,74.75.08,5.8-1.84,8.87-7.29,11.38q-85.78,39.54-171.51.2c-5.84-2.68-7.69-6-7.6-12.18.39-23.66-.34-47.35.41-71,.27-8.68-2.81-11.89-11.11-13.66a352.54,352.54,0,0,1-36.17-10c-3-1-6.75-4.82-6.78-7.39s3.76-6.61,6.65-7.43c32.42-9.2,62-19.91,94.53-28.68,1.07-.28,2.36.21,3.94,1.84-33.78,12.71-66.33,22-100.77,35.16,2.73,1.05,5.4,2.35,8.21,3.12,42.09,11.61,84.16,23.27,126.34,34.56a30.53,30.53,0,0,0,15,.25c43.1-11.56,86.07-23.55,129.07-35.46a58.66,58.66,0,0,0,5.94-2.29ZM73.83,187.54c0,15.5-.2,29.12.22,42.72.06,2.08,2.53,5,4.62,6q79.76,38.31,159.76.24c2.13-1,4.82-3.78,4.88-5.8.43-13.89.23-27.81.23-42.7-3.9,1-6.57,1.55-9.2,2.29-19.11,5.39-38.37,10.3-57.25,16.4a56.51,56.51,0,0,1-36.29.1C119.29,199.88,97.39,194.23,73.83,187.54Zm0,52.46c0,10.71-.29,19.94.22,29.13.12,2.1,2.59,4.93,4.69,5.94q79.86,38.44,159.85.06c2.1-1,4.62-3.79,4.73-5.87.52-9.22.23-18.49.23-29.25C186.72,267,130.9,267,73.85,240Zm215.78,9.18-5.29.17c0,6.12-.14,12.25.29,18.34,0,.46,4.08.63,7.53,1.12C291.19,261.31,290.41,255.25,289.63,249.18Z"/><path class="cls-1" d="M160.64,144.61a41.24,41.24,0,1,1,41.23-41.4A40.81,40.81,0,0,1,160.64,144.61Zm0-77.38a36.3,36.3,0,0,0-.4,72.59,36.3,36.3,0,1,0,.4-72.59Z"/><path class="cls-1" d="M159.4,177.66h-32c-8.06,0-11.77-3.46-11.77-9.89s3.36-10,11.57-10q33.18,0,66.37,0c8.18,0,11.65,3.52,11.72,9.88s-3.37,10-11.53,10C182.28,177.68,170.84,177.66,159.4,177.66Zm1.36-1.5c11.41,0,22.86.55,34.23-.36,3-.25,5.87-5,8.8-7.6-2.71-2.92-5.39-8.29-8.15-8.37q-34.87-1-69.76,0c-2.74.08-5.39,5.43-8.09,8.33,2.91,2.67,5.71,7.38,8.73,7.63C137.9,176.7,149.34,176.15,160.76,176.16Z"/><path class="cls-1" d="M142.2,15.24l-1.15,56.58-2.35,0,1.15-56.53Z"/><path class="cls-1" d="M160.88,4l-1.15,56.58-2.35,0,1.15-56.54Z"/><path class="cls-1" d="M183.29,13.38,182.14,70h-2.35l1.15-56.54Z"/><path class="cls-1" d="M157.54,130.19V124a23.86,23.86,0,0,1-11-2.69l1.74-4.1a21.73,21.73,0,0,0,10.4,2.63c5.12,0,8.59-2.51,8.59-6s-2.82-5.44-8.16-7.28c-7.37-2.45-11.92-5.26-11.92-10.58,0-5.08,4.26-8.93,10.9-9.85V80h4.48v5.93a21.91,21.91,0,0,1,9.39,2.14l-1.81,4A19.85,19.85,0,0,0,161,90c-5.56,0-7.66,2.81-7.66,5.25,0,3.18,2.67,4.78,9,7,7.43,2.57,11.19,5.75,11.19,11.19,0,4.83-4,9.36-11.41,10.4v6.36Z"/></g></g></svg>