<svg xmlns="http://www.w3.org/2000/svg" viewBox="0 0 397.27 417.87"><g id="Capa_2" data-name="Capa 2"><g id="Capa_1-2" data-name="Capa 1"><path d="M344.42,271.11c-6.53-.4-12.79.09-18.58-1.33a27.09,27.09,0,0,1-20.42-25.51c-.41-16.49-.53-33,0-49.49.53-16.82,15.64-29.05,32.4-27.06,1.77.21,3.53.45,6,.77C340.7,116.27,318.63,75,274,48.12c-50.71-30.51-103-30-153.14,1.35-43.28,27-64.64,67.88-67.53,118.12,6.11.3,11.71-.22,16.92,1a27.88,27.88,0,0,1,21.5,26.82c.33,16,.3,32,0,48a28.43,28.43,0,0,1-20.09,26.49,28.92,28.92,0,0,1-31.84-9.76,9.74,9.74,0,0,0-7.75-4.22C16.47,254.53,3,241.39.49,225.62c-2.71-17.33,5.93-33.65,21.9-40.14,4.23-1.72,5.18-3.84,5.06-8C26.26,136,37.52,98.07,63.9,65.93c44.94-54.77,103.41-76.64,172.38-61,69.83,15.84,113,61.59,129.65,131.24,3.24,13.58,2.8,28.08,3.65,42.18.21,3.6.91,5.43,4.55,6.86,15,5.9,24.54,21.54,23,36.83-1.78,17.46-13.68,30.87-30.51,33.62-3.7.61-4.46,2.25-5,5.29-9.5,52.48-37.9,91.57-84.06,117.83-15.31,8.71-31.87,14.2-49.2,17.46a10.65,10.65,0,0,0-6.06,4c-5.62,8-13.63,12.11-22.61,14.6-16.76,4.64-33.36,4.09-49.3-3.18-8.59-3.92-16.41-9.47-16.48-20.07s7.69-16.35,16.33-20.13c19.62-8.58,39.49-8.56,59,.54,4,1.85,7.13,5.35,10.86,7.81,1.59,1.06,3.79,2.17,5.52,1.91,54.58-8.07,106.55-56.2,118.83-109.86C344.51,271.43,344.42,270.93,344.42,271.11Z" fill="#008000"/><path d="M116.19,197.31V175c0-.42.13-.83.16-1.24.16-1.91.18-3.84.48-5.73A39.17,39.17,0,0,1,123.65,152a41.93,41.93,0,0,1,18.7-14.81A37,37,0,0,1,156.06,134c3.93-.07,7.85-.13,11.77-.12q24.1,0,48.21.14a53.86,53.86,0,0,1,7.84.49,37.68,37.68,0,0,1,11.48,3.86A42,42,0,0,1,255.78,160a26,26,0,0,1,2.43,8.49q.36,6,.38,11.95.11,14,.07,28a37.53,37.53,0,0,1-4.35,17,41.58,41.58,0,0,1-13.25,15.15A39.3,39.3,0,0,1,222.65,248c-4.67.54-9.39.7-14.09.88a58.27,58.27,0,0,0-12.9,1.77,59.63,59.63,0,0,0-25.19,13.2c-2.4,2.16-4.81,4.32-7.26,6.42a3.19,3.19,0,0,1-1.77.72c-2.64.18-4.35-1.52-4.41-4.33-.1-3.8-.16-7.61-.21-11.42,0-2.27,0-4.54,0-6.84a32.77,32.77,0,0,1-11-2.1A44.14,44.14,0,0,1,120,223.58a27.94,27.94,0,0,1-3.24-10.69c-.22-3.8-.25-7.61-.37-11.41C116.31,200.09,116.24,198.7,116.19,197.31Zm49.24-4.81c.6-5.42-5.09-11.12-11.47-11.05s-11.48,4.94-11.5,10.91a11.13,11.13,0,0,0,11,11.29C161.33,203.86,165.78,197.81,165.43,192.5Zm47,.42c-.49,5,5,10.87,11.23,10.76,7.59-.13,11.64-5.6,11.77-10.8a11.43,11.43,0,0,0-11.69-11.43C218,181.45,212.27,185.67,212.46,192.92Zm-12.17-.17c.63-7.12-6.21-11.36-11.28-11.35-6.25,0-11.65,5.15-11.67,11.15,0,6.17,5.18,11.07,11.67,11.16C194.56,203.78,200.92,198.83,200.29,192.75Z" fill="#008000"/><path d="M290.89,176.84c-.06,1-.18,1.92-.18,2.89-.08,10.74-4.47,19.74-11.94,27.5a42.27,42.27,0,0,1-14,9.64c-.33.15-.69.25-1.22.44a36,36,0,0,0,.56-3.64c.2-3.4.41-6.8.42-10.21,0-11.08,0-22.17-.09-33.25,0-3.45-1.18-6.69-2.33-9.89a48.61,48.61,0,0,0-39.48-31.64,95,95,0,0,0-11.08-.34q-28.67-.08-57.33-.08H153c.52-.9.92-1.7,1.41-2.45a42.88,42.88,0,0,1,25.36-18.51,48.42,48.42,0,0,1,12.85-1.39q25.16,0,50.31,0c3.73,0,7.46.15,11.18.34A30.87,30.87,0,0,1,264.32,109a42.38,42.38,0,0,1,21.93,19.56,34.77,34.77,0,0,1,4.27,14.53c.11,1.76.16,3.53.24,5.29,0,.24.09.47.13.7Z" fill="#008000"/></g></g></svg>