<svg xmlns="http://www.w3.org/2000/svg" viewBox="0 0 144.79 127.74"><g id="Capa_2" data-name="Capa 2"><g id="Capa_1-2" data-name="Capa 1"><path d="M72.4,33.59c15.32,11,30.22,21.64,45,32.47A7,7,0,0,1,119.66,71c.17,14,.16,28,0,42-.07,9.71-5.21,14.76-14.87,14.76q-32.73,0-65.46,0c-8.7,0-14.2-5.3-14.25-13.85Q25,92.6,25.24,71.36c0-1.74.77-4.17,2-5.11C42.14,55.29,57.18,44.56,72.4,33.59Z" fill="#008000"/><path d="M72.33,19.82l-58.23,42c-6.22,4.49-8.82,4-12.67-2.49C-1.1,55.12-.38,52.47,4.52,48.93Q29.6,30.8,54.73,12.74C60.53,8.56,66.32,4.36,72.34,0c7.06,5,14,10.11,21.14,15,1.5,1,3.55,1.26,5.35,1.85.55-1.81,1.52-3.61,1.58-5.44.3-9.29,1.62-11.12,8.7-11.26,8.33-.16,10.24,1.72,10.31,10.17,0,4.83.22,9.67,0,14.48-.25,6.44,2.31,11.17,7.65,14.7,4.57,3,9,6.3,13.42,9.55,5.07,3.72,5.51,6.69,1.88,11.73s-5.71,5.35-11,1.51L76.3,22.57C75.09,21.7,73.85,20.87,72.33,19.82Z" fill="#008000"/></g></g></svg>