<svg xmlns="http://www.w3.org/2000/svg" viewBox="0 0 536.18 388.12"><defs><style>.cls-1{fill:#008000;stroke:#008000;stroke-miterlimit:10;stroke-width:8px;}</style></defs><g id="Capa_2" data-name="Capa 2"><g id="Capa_1-2" data-name="Capa 1"><path d="M270.56,388.12c-24.39-1.36-48.85-2.05-73.16-4.28-22.4-2.06-44.74-5.39-65.55-14.85a59.63,59.63,0,0,1-10.56-6.46c-6.54-4.83-5.54-12.06-5-18.76,2.09-25.13,10-48.16,25.53-68.29,16.64-21.6,37.78-37.6,62.19-49.41a18.08,18.08,0,0,1,17.24.56c18.06,10.15,37.53,13,57.78,11.44,11.47-.86,22.54-3.73,32.52-9.75,7.79-4.69,15.48-4.83,23.53-.66,26.48,13.71,49.69,31.3,66.33,56.48,11.42,17.28,18.26,36.23,19.7,57,.05.67.15,1.33.26,2,2.6,15-1.91,21.34-15.7,27.73-14.24,6.6-29.6,9.16-45.05,11.3C330.76,386.3,300.73,387.35,270.56,388.12Z" fill="#008000"/><path d="M267.48,221.12c-44.39,1-81.9-37.29-81.57-81.54.32-42.83,34.59-81.27,81.53-81.13,44.67.14,81,34.65,81.28,81.45C349,186.54,310.49,221.71,267.48,221.12Z" fill="#008000"/><path d="M174.3,153.82c4,23.23,14.74,42.52,32.43,57.94C189.19,218,174,228.11,159.6,239.53c-18.22,14.46-32.69,32-42.63,53.09-1.15,2.45-2.17,3.26-5.15,3-15.54-1.41-31.18-1.92-46.68-3.68-17.11-1.94-34.09-5-50-12-2.26-1-4.36-2.33-6.54-3.51C.33,272-.53,264.62.21,256.35c2.44-27.18,12.5-51,31.08-71.07,13.34-14.43,29.16-25.54,46.7-34.22,6.52-3.22,13.05-2.52,19.51.86,21.19,11.11,43.38,12.24,66.16,6.07C167.13,157.05,170.39,155.37,174.3,153.82Z" fill="#008000"/><path d="M328.73,211a96.13,96.13,0,0,0,31.33-56,88.92,88.92,0,0,0,43,8.19c11.92-.58,23.34-3,33.71-9.18,6-3.56,12.41-4.56,18.55-1.58,29.52,14.32,54.2,34.11,69.34,64,7.44,14.7,10.76,30.47,11.52,47,.5,10.69-5.92,16.11-14.22,19.26-10.28,3.89-21,7.64-31.78,9-21,2.71-42.29,3.7-63.45,5.5-2.72.23-4.2-.64-5.39-3.13-14.63-30.78-38.26-53-67.26-69.92C346,219.4,337.44,215.48,328.73,211Z" fill="#008000"/><path d="M62.64,73.35A73.52,73.52,0,0,1,144.56.44C176.94,3.87,201.9,27,208.79,59.6c.75,3.55.56,6.44-2.89,9.49C187,85.84,175.74,106.71,174,132.22c-.25,3.73-1.86,6-5.25,7.56-43.9,20.41-93-3.36-104.19-50.66C63.36,84,63.26,78.61,62.64,73.35Z" fill="#008000"/><path d="M396.82,1.8c37.32,0,69.31,28.38,73.15,64.89,4,37.92-19.9,71.61-57.19,80.3A69.2,69.2,0,0,1,364,140.92a6.14,6.14,0,0,1-2.81-4.29c-1.66-26.93-11.93-49.73-32.54-67.41-4-3.42-4.77-6.62-3.53-11.52A73.56,73.56,0,0,1,396.82,1.8Z" fill="#008000"/></g></g></svg>