<svg xmlns="http://www.w3.org/2000/svg" viewBox="0 0 235.69 181.51"><g id="Capa_2" data-name="Capa 2"><g id="Capa_1-2" data-name="Capa 1"><path d="M44.79,31.43c0-7.09-.06-13.41,0-19.72C44.91,2.45,47.46,0,56.89,0Q75.63,0,94.37,0H222.82c10.73,0,12.86,2.13,12.86,12.86q0,68,0,135.94c0,20.4-12.21,32.67-32.58,32.68q-84.7,0-169.43,0C12,181.48,0,169.5,0,147.78Q0,95.55,0,43.32c0-9.7,2-11.79,11.61-11.87C22.42,31.36,33.22,31.43,44.79,31.43ZM58.28,166.15H72.86q63.69,0,127.4,0c15.49,0,19.6-4.18,19.61-19.49V16.2H60.25c-.09,1.15-.21,2-.21,2.77,0,41.64.13,83.27,0,124.91C60,151.08,58.93,158.28,58.28,166.15ZM15.77,47c0,7.41,0,14.38,0,21.35,0,27.82,0,55.64.08,83.47,0,7.63,5.16,13.23,12.24,14,8.21.89,14-3,15.9-11a31.35,31.35,0,0,0,.7-6.91q.06-47.49,0-95V47Z" fill="#008000"/><path d="M103.3,82.91c-6.16,0-12.33.08-18.49,0-5.71-.09-8.74-2.84-8.83-8.56-.19-11.48-.17-23,0-34.47.07-5.54,2.79-8.28,8.4-8.35q19-.23,38,0c5.94.09,8.47,2.82,8.52,8.7q.14,17,0,34c0,6-2.9,8.62-9.06,8.69S109.46,82.91,103.3,82.91Zm11.45-35.8H92.05V67.19h22.7Z" fill="#008000"/><path d="M139.89,116.73c-17.64,0-35.27,0-52.91,0-2.13,0-4.78.17-6.26-1a13.41,13.41,0,0,1-4.78-6.64c-.9-3.48,1.55-6.08,4.84-7.1a25.3,25.3,0,0,1,7.38-.87q51.93-.07,103.84,0c2.31,0,5.18-.29,6.78.9a13.66,13.66,0,0,1,5,7.06c.79,3.37-1.54,6-5.07,6.87a31.31,31.31,0,0,1-6.9.76c-17.3.06-34.61,0-51.92,0Z" fill="#008000"/><path d="M139.85,150.26q-26.5,0-53,0c-1.83,0-4.11.41-5.38-.49-2.22-1.58-5.2-4-5.31-6.14-.13-2.47,2.21-5.39,4.15-7.5,1-1.06,3.44-1,5.23-1.05q54.49-.1,109,0a15.64,15.64,0,0,1,4.39.68c3.73,1.12,5.26,3.92,5.09,7.62-.18,3.87-2.45,6.08-6.2,6.67a37.06,37.06,0,0,1-5.48.26Q166.1,150.28,139.85,150.26Z" fill="#008000"/><path d="M175.28,31.61c6.82,0,13.64-.09,20.46,0,5.21.09,8.22,2.83,8.3,7.23s-2.8,7.71-7.91,7.79q-20.94.33-41.89,0c-4.93-.09-8.11-3.74-8-7.88.16-4.33,3.22-7,8.55-7.1C161.65,31.52,168.47,31.61,175.28,31.61Z" fill="#008000"/><path d="M175.35,83c-6.48,0-13,0-19.44,0-5.84-.06-9.74-3.27-9.64-7.78s3.82-7.36,9.46-7.38q19.7,0,39.39,0c5.71,0,9,2.95,8.93,7.71-.08,4.53-3.28,7.35-8.75,7.42C188.65,83,182,83,175.35,83Z" fill="#008000"/></g></g></svg>