<svg xmlns="http://www.w3.org/2000/svg" viewBox="0 0 164.06 157.05"><g id="Capa_2" data-name="Capa 2"><g id="Capa_1-2" data-name="Capa 1"><path d="M54.7,125.09H9.12c-8.63,0-10-1.64-8.7-11H152.6V16.07H64.46V5h91.27c6.74,0,8.32,1.53,8.32,8.13q0,52,0,104c0,6.63-1.3,7.92-7.88,7.94-14.17,0-28.34.18-42.5-.09-4.31-.08-5.13,1.42-5.27,5.4-.24,6.92,1.87,12.36,7.4,16.53a21.79,21.79,0,0,1,4.35,4.11c.77,1,1.44,2.89,1,3.86s-2.24,1.89-3.52,2c-3.14.28-6.32.1-9.49.1-19.83,0-39.66.07-59.5-.09-2,0-4.06-1.35-6.09-2.08,1.05-1.89,1.65-4.38,3.23-5.57C53.76,143.25,57.35,135.75,54.7,125.09Z" fill="#008000"/><path d="M.62,0h41.5V111.45H27V89.24H15v22.21H.62ZM25,54.14H18V71.48h7ZM13.73,71.51V54.05c-2.1,0-4.06,0-6,0-.92,0-1,.49-1,1.22q0,7.76,0,15.49a5.26,5.26,0,0,0,.13.76Zm15.18-8.76c0,2.51,0,5,0,7.52,0,1,.35,1.38,1.36,1.34,1.57-.06,3.15,0,4.72,0,.81,0,1.13-.27,1.13-1.11q0-7.66,0-15.34c0-.83-.32-1.13-1.13-1.11-1.57,0-3.15.06-4.72,0-1,0-1.39.3-1.36,1.35C29,57.83,28.91,60.29,28.91,62.75ZM13.76,27.6V10.31h-7V27.6ZM18,10.26V27.55h6.94V10.26Zm11,0V27.56h7V10.27ZM6.79,49.14h7V31.87h-7Zm18.12,0V31.88H18V49.17Zm11.05,0V31.85H29V49.18Z" fill="#008000"/><path d="M45.19,26.67V19h34v81.68h5.47v6.37H45.25V81.73H70.88V74.46H45.24V66.81H70.87V62.53H45.19V54.86H70.9V51H45.22V43.38H70.9V38.87H45.21V31.15H70.89V26.67ZM65,100.27c0-3.54,0-7,0-10.5,0-.29-.63-.81-1-.81q-6.7-.09-13.42,0c-.35,0-1,.49-1,.77-.07,3.48,0,7,0,10.54Z" fill="#008000"/></g></g></svg>