<svg xmlns="http://www.w3.org/2000/svg" viewBox="0 0 167.94 193.97"><defs><style>.cls-1{stroke:#008000;stroke-miterlimit:10;stroke-width:0.25px;}</style></defs><g id="Capa_2" data-name="Capa 2"><g id="Capa_1-2" data-name="Capa 1"><path class="cls-1" d="M83.92,114.79v0H56.11a29.25,29.25,0,0,0-21.74,8.95c-10.52,10.64-21.15,21.18-31.73,31.77-3.38,3.38-3.35,6.25.08,9.67q13,13,26.07,26c3.56,3.55,6.46,3.57,10,.05,6.31-6.28,12.63-12.53,18.88-18.86a4.56,4.56,0,0,1,3.61-1.45c14.91,0,29.81.1,44.72-.06a44,44,0,0,0,10.71-1.42c11.23-3,19.45-9.94,24.88-20.17,5.07-9.54,10-19.14,15-28.71,3.48-6.64,7-13.25,10.43-19.92,2.16-4.23-.53-8.56-5.25-8.33a30.55,30.55,0,0,0-7.53,1.3c-7.23,2.25-12.4,7-15.89,13.7Q130.1,123.16,121.73,139c-3.37,6.38-8.71,9.63-16,9.64q-18.6,0-37.2,0a7.73,7.73,0,0,1-2-.2,5.8,5.8,0,0,1-4.18-6.13,5.69,5.69,0,0,1,5.76-5.11q18.78,0,37.58,0a6,6,0,0,0,5.89-3.52c1.94-3.77,4-7.5,5.9-11.29,2.05-4-.12-7.51-4.64-7.51Q98.39,114.78,83.92,114.79Z" fill="#008000"/><path class="cls-1" d="M67.07,24.1c.17-3.48.11-6.78.51-10C68.64,5.66,76.14-.21,85.11.14c7.78.31,14.7,7.13,15.16,15.11.16,2.89,0,5.8,0,8.85,2.42,0,4.5,0,6.58,0,6.16,0,10.46,4,10.74,10.16.13,2.72.08,5.45,0,8.17s-1.54,4.18-4.12,4.11c-2.41-.07-3.69-1.54-3.71-4.29,0-2.54,0-5.07,0-7.61,0-1.57-.68-2.62-2.29-2.69-2.26-.1-4.54,0-7.14,0,0,2.69.1,5.27,0,7.83A3.78,3.78,0,0,1,94.76,43a3.39,3.39,0,0,1-2.1-3.32V32H75.11c0,2.57.08,5.09,0,7.6A3.9,3.9,0,0,1,69.22,43a4,4,0,0,1-2-3.84V32c-2.55,0-4.95-.15-7.32.09-.7.07-1.4,1.18-1.89,1.95-.26.42-.08,1.12-.08,1.69V87.79c0,3.39.42,3.81,3.85,3.81q22,0,44.1,0c3.42,0,3.89-.46,3.89-3.79,0-4.31,0-8.62,0-12.93,0-2.87,1.32-4.36,3.82-4.39s4,1.42,4,4.23c0,5.38.15,10.78-.3,16.13-.41,5-4.81,8.52-9.81,8.53q-23.67,0-47.34,0a10,10,0,0,1-10.07-10Q50,61.7,50.11,34A10.06,10.06,0,0,1,60.27,24.1C62.53,24.08,64.8,24.1,67.07,24.1ZM92.64,24c0-2.74.14-5.34,0-7.91a8.75,8.75,0,0,0-8.43-8.22,8.49,8.49,0,0,0-8.86,7c-.41,2.95-.08,6-.08,9.11Z" fill="#008000"/><path class="cls-1" d="M83.89,66.69c-2.34,0-4.68,0-7,0a3.49,3.49,0,0,1-3.62-3.74c0-2.29,1.24-3.85,3.45-3.89q7.11-.12,14.23,0a3.53,3.53,0,0,1,3.58,3.82,3.61,3.61,0,0,1-3.8,3.81C88.45,66.73,86.17,66.69,83.89,66.69Z" fill="#008000"/><path class="cls-1" d="M148.19,37.33c-.71,1-1.23,2.19-2.17,2.8-2.91,1.88-5.94,3.58-9,5.24a3.72,3.72,0,0,1-5.1-1.43,3.81,3.81,0,0,1,1.31-5.3c2.91-1.77,5.86-3.49,8.87-5.09C144.82,32.09,147.77,34,148.19,37.33Z" fill="#008000"/><path class="cls-1" d="M131.09,77.61c.36-3.34,3.28-5.26,6-3.82,3.06,1.63,6.06,3.38,9,5.19a3.58,3.58,0,0,1,1.18,5.12,3.64,3.64,0,0,1-5,1.56c-3.1-1.69-6.18-3.43-9.14-5.34C132.21,79.75,131.75,78.53,131.09,77.61Z" fill="#008000"/><path class="cls-1" d="M25.36,86.1a3.68,3.68,0,0,1-3.71-2.77,3.28,3.28,0,0,1,1.29-4.18c3.18-1.92,6.39-3.8,9.66-5.56A3.46,3.46,0,0,1,37.05,75c1.15,1.68,1.25,3.8-.26,4.8C33.38,82,29.77,84,26.23,86A2,2,0,0,1,25.36,86.1Z" fill="#008000"/><path class="cls-1" d="M33.39,45.79a10.67,10.67,0,0,1-1.66-.67C29,43.57,26.23,42,23.51,40.38a3.88,3.88,0,1,1,3.82-6.75q4.41,2.43,8.71,5a3.35,3.35,0,0,1,1.6,4.23A4,4,0,0,1,33.39,45.79Z" fill="#008000"/><path class="cls-1" d="M139.48,63.26c-1.71,0-3.42,0-5.13,0a3.66,3.66,0,0,1-3.6-3.86,3.56,3.56,0,0,1,3.49-3.75c3.55-.09,7.1-.09,10.65,0a3.6,3.6,0,0,1,3.59,3.85,3.67,3.67,0,0,1-3.68,3.79C143,63.29,141.26,63.26,139.48,63.26Z" fill="#008000"/><path class="cls-1" d="M29.52,63.26c-1.71,0-3.42,0-5.13,0a3.59,3.59,0,0,1-3.6-3.82,3.49,3.49,0,0,1,3.4-3.8q5.41-.14,10.83,0a3.47,3.47,0,0,1,3.41,3.78,3.59,3.59,0,0,1-3.59,3.84C33.07,63.3,31.29,63.26,29.52,63.26Z" fill="#008000"/><path class="cls-1" d="M113.64,62.14a3.86,3.86,0,0,1-3.84-3.87,4,4,0,0,1,4-3.77,3.82,3.82,0,1,1-.13,7.64Z" fill="#008000"/></g></g></svg>